<svg id="Layer_1" data-name="Layer 1" xmlns="http://www.w3.org/2000/svg" width="340.71" height="74.3" viewBox="0 0 340.71 74.39"><defs><style>.cls-1{fill:#fff}.cls-5{isolation:isolate}</style></defs><g id="Group_254" data-name="Group 254"><g id="Group_1" data-name="Group 1"><path id="Path_1" data-name="Path 1" class="cls-1" d="M75.84 24.42L70.12.48h4.95l3.61 16.45L83.06.48h5.75L93 17.21 96.68.48h4.87l-5.82 23.94h-5.12l-4.77-17.9-4.76 17.9zm26.8-11.82a15.18 15.18 0 011.09-6.14A11.52 11.52 0 01106 3.17 9.39 9.39 0 01109.06 1a13.23 13.23 0 015.16-.95 11.26 11.26 0 018.46 3.28q3.18 3.28 3.18 9.13t-3.15 9.07a11.13 11.13 0 01-8.43 3.28 11.32 11.32 0 01-8.5-3.26q-3.15-3.26-3.15-9zm5-.16q0 4.07 1.88 6.16a6.45 6.45 0 009.51 0q1.84-2.09 1.85-6.25t-1.8-6.14a6.68 6.68 0 00-9.61 0c-1.22 1.37-1.84 3.43-1.84 6.19zm20.64.16a15.18 15.18 0 011.09-6.14 11.32 11.32 0 012.23-3.29A9.39 9.39 0 01134.68 1a13.23 13.23 0 015.16-.95 11.29 11.29 0 018.47 3.28q3.16 3.28 3.17 9.13t-3.15 9.07a12.58 12.58 0 01-16.92 0q-3.16-3.26-3.16-9zm5-.16c0 2.71.62 4.76 1.88 6.16a6.45 6.45 0 009.51 0q1.86-2.09 1.86-6.25t-1.8-6.14a6.69 6.69 0 00-9.62 0c-1.22 1.37-1.84 3.43-1.84 6.19zm21.6-12h8.83a17 17 0 014.56.46 8 8 0 013.61 2.2 10.53 10.53 0 012.25 3.9 17.76 17.76 0 01.78 5.66 15.75 15.75 0 01-.73 5.1 10.61 10.61 0 01-2.57 4.24 8.44 8.44 0 01-3.4 1.91 14.68 14.68 0 01-4.28.51h-9.1zm4.83 4.05v15.9h3.61a13.12 13.12 0 002.93-.23 4.43 4.43 0 001.95-1 5 5 0 001.26-2.31 15.46 15.46 0 00.49-4.39 14.28 14.28 0 00-.49-4.26 5.49 5.49 0 00-1.37-2.32 4.63 4.63 0 00-2.24-1.12 21.07 21.07 0 00-4-.23zm19.07 19.9V.68h4.83V20.4h12v4zm41.5 0H215L212.89 19h-9.57l-2 5.44h-5.13L205.53.48h5.12zM211.34 15L208 6.07 204.8 15zm11.11 9.47V.48h4.7l9.8 16v-16h4.5v23.94h-4.85l-9.66-15.61v15.61zM246.14.48H255a17 17 0 014.55.46 8 8 0 013.61 2.2A10.4 10.4 0 01265.43 7a17.77 17.77 0 01.79 5.66 16 16 0 01-.74 5.1 10.7 10.7 0 01-2.56 4.24 8.5 8.5 0 01-3.4 1.91 14.76 14.76 0 01-4.28.51h-9.1zM251 4.53v15.86h3.61a13 13 0 002.92-.23 4.43 4.43 0 001.95-1 5 5 0 001.27-2.31 15.83 15.83 0 00.49-4.39 14.61 14.61 0 00-.49-4.26 5.59 5.59 0 00-1.37-2.32 4.67 4.67 0 00-2.24-1.12 21.12 21.12 0 00-4-.23zm17.71 12.1l4.7-.46a5.7 5.7 0 001.72 3.48 5.22 5.22 0 003.5 1.11 5.39 5.39 0 003.52-1 3 3 0 001.19-2.31 2.22 2.22 0 00-.5-1.44 4 4 0 00-1.74-1c-.57-.2-1.86-.54-3.87-1a13.3 13.3 0 01-5.46-2.37 6.26 6.26 0 01-2.21-4.82 6.12 6.12 0 011-3.42 6.47 6.47 0 013-2.43 11.86 11.86 0 014.71-.83q4.52 0 6.79 2a7 7 0 012.39 5.28l-4.83.21a4.09 4.09 0 00-1.33-2.65 4.85 4.85 0 00-3.07-.81 5.5 5.5 0 00-3.3.86 1.75 1.75 0 00-.76 1.49 1.81 1.81 0 00.71 1.45 12.65 12.65 0 004.45 1.6 23.52 23.52 0 015.22 1.73 6.64 6.64 0 012.64 2.43 7.19 7.19 0 011 3.81A7.06 7.06 0 01287 21.3a6.81 6.81 0 01-3.23 2.7 13.41 13.41 0 01-5.21.87c-3 0-5.35-.69-7-2.1a9.12 9.12 0 01-2.89-6.11z"/><g id="Group_3" data-name="Group 3"><path id="Path_4" data-name="Path 4" class="cls-1" d="M109.79 47.15l-1.69-.43a8.42 8.42 0 01-2.53 4.14 7.44 7.44 0 01-4.95 1.7 8.37 8.37 0 01-4.33-1.21 7.33 7.33 0 01-3-3.73 15.07 15.07 0 01-.92-5.52 14.8 14.8 0 01.78-4.76 7.65 7.65 0 012.83-3.86 8.4 8.4 0 015-1.44 7.05 7.05 0 014.33 1.31 8 8 0 012.45 3.48l1.66-.39a8.69 8.69 0 00-2.88-4 8.92 8.92 0 00-5.5-1.65h-.11a10.89 10.89 0 00-5.29 1.34A8.88 8.88 0 0091.87 36a13.27 13.27 0 00-1.34 6.09 15.39 15.39 0 001.19 6.07 8.92 8.92 0 003.38 4.17 10.53 10.53 0 005.8 1.44 9.07 9.07 0 005.8-1.88 9.79 9.79 0 003.09-4.74z"/><path id="Path_5" data-name="Path 5" class="cls-1" d="M178.37 31.23v22.15h13.3v-1.33H180V31.23z"/><path id="Path_6" data-name="Path 6" class="cls-1" d="M154.87 42.61a12.62 12.62 0 001.27 5.57 9.63 9.63 0 003.7 4.09 10.32 10.32 0 005.57 1.5 11 11 0 005.4-1.36 9.13 9.13 0 003.8-4 13.12 13.12 0 001.39-6.07 13.51 13.51 0 00-1.3-6 9.39 9.39 0 00-3.7-4.08 10.63 10.63 0 00-5.51-1.46h-.35a10 10 0 00-7.28 3.1c-2 2.07-2.95 5-2.95 8.7zm1.76 0c0-3.75.88-6.48 2.62-8.14a8.74 8.74 0 016.22-2.47 8.38 8.38 0 014.59 1.3 8.15 8.15 0 013.13 3.7 12.68 12.68 0 011 5.34c0 3.2-.83 5.73-2.47 7.51a8.25 8.25 0 01-6.12 2.72h-.24a8.24 8.24 0 01-6.27-2.69 10.18 10.18 0 01-2.49-7.21z"/><path id="Path_7" data-name="Path 7" class="cls-1" d="M75.59 52.91a12.88 12.88 0 005.07.88 10.34 10.34 0 004.28-.87 6.45 6.45 0 002.79-2.33 5.69 5.69 0 001-3.15 5 5 0 00-.86-2.95 6.36 6.36 0 00-2.72-2.14A29.79 29.79 0 0080 40.89c-3.6-.82-4.61-1.46-5.06-1.86a3.4 3.4 0 01-1.15-2.65 3.8 3.8 0 011.6-3.08A7.18 7.18 0 0180 32.12a7.13 7.13 0 014.58 1.31 5.66 5.66 0 011.81 3.17l1.57-.12a6.46 6.46 0 00-1-2.65 5.88 5.88 0 00-2.74-2.21 10.8 10.8 0 00-4.35-.79 10.32 10.32 0 00-4.07.75 5.58 5.58 0 00-2.63 2.09 5.29 5.29 0 00-.89 2.93 4.63 4.63 0 00.72 2.56 5.7 5.7 0 002.23 1.93 21.11 21.11 0 004.38 1.41q2.18.48 4.29 1.17a5.51 5.51 0 012.44 1.6 3.87 3.87 0 01.83 2.44 4.11 4.11 0 01-.81 2.44 5.05 5.05 0 01-2.39 1.71 9.45 9.45 0 01-3.41.58 9.81 9.81 0 01-3.89-.76A6 6 0 0174 49.6a7.14 7.14 0 01-1-2.55l-1.55.14a7.12 7.12 0 001.13 3.18 6.74 6.74 0 003.01 2.54z"/><path id="Path_8" data-name="Path 8" class="cls-1" d="M129.44 53.38V31.23h-1.66v9.7h-13.73v-9.7h-1.67v22.15h1.67V42.25h13.73v11.13z"/><path id="Path_9" data-name="Path 9" class="cls-1" d="M148.28 32.27a10.46 10.46 0 00-5.51-1.46 10 10 0 00-7.63 3.1c-2 2.06-3 5-3 8.7a12.73 12.73 0 001.28 5.52 9.63 9.63 0 003.7 4.09 10.32 10.32 0 005.57 1.5 11.12 11.12 0 005.39-1.36 9.1 9.1 0 003.81-4 13.12 13.12 0 001.37-6.09 13.51 13.51 0 00-1.3-6 9.43 9.43 0 00-3.68-4zm.79 17.58a8.23 8.23 0 01-6.13 2.71h-.23a8.28 8.28 0 01-6.28-2.69 10.16 10.16 0 01-2.43-7.21c0-3.74.88-6.48 2.61-8.14a8.78 8.78 0 016.18-2.52 8.43 8.43 0 014.58 1.3 8.14 8.14 0 013.13 3.7 12.69 12.69 0 011 5.34 10.76 10.76 0 01-2.47 7.51z"/></g><path id="Path_33" data-name="Path 33" d="M25.36 0l8.46 14.7-8.46 14.7H8.45L0 14.7 8.45 0z" fill="#5599c2"/><path id="Polygon_11" data-name="Polygon 11" d="M52.63 14.91l8.46 14.7-8.46 14.7H35.72l-8.45-14.7 8.45-14.7z" fill="#954394"/><path id="Polygon_12" data-name="Polygon 12" d="M25.73 30.91l8.45 14.7-8.45 14.7H8.82L.36 45.61l8.46-14.7z" fill="#bf3d89"/></g><g id="Aspiration_Resilience_Opportunity_Excellence" data-name="Aspiration Resilience Opportunity Excellence" class="cls-5"><g class="cls-5"><path class="cls-1" d="M78.88 73H78a.37.37 0 01-.25-.08.4.4 0 01-.15-.19l-.6-1.59h-3.1l-.6 1.59a.49.49 0 01-.14.19.41.41 0 01-.25.08H72l2.86-7.2H76zm-2.21-2.7l-1-2.63c-.07-.2-.16-.46-.24-.78 0 .16-.08.31-.12.44a3.24 3.24 0 01-.12.34l-1 2.63zM83.73 67a.36.36 0 01-.11.13.25.25 0 01-.15 0 .43.43 0 01-.21-.08A2.45 2.45 0 0083 67a2 2 0 00-.41-.18 1.57 1.57 0 00-.56-.09 1.69 1.69 0 00-.53.08 1.07 1.07 0 00-.38.21.9.9 0 00-.23.32 1 1 0 00-.08.39.74.74 0 00.14.46 1.39 1.39 0 00.39.32 3.37 3.37 0 00.54.22l.62.21c.21.07.42.16.62.25a1.87 1.87 0 01.55.36A1.56 1.56 0 0184 70a1.75 1.75 0 01.14.76 2.42 2.42 0 01-.16.89 2.06 2.06 0 01-.48.74 2.16 2.16 0 01-.77.49 2.8 2.8 0 01-1 .18A3 3 0 0181 73a3.28 3.28 0 01-.63-.19 3.71 3.71 0 01-.56-.29 2.93 2.93 0 01-.46-.4l.34-.55a.43.43 0 01.11-.12.34.34 0 01.41.07l.34.24a2.7 2.7 0 00.48.23 1.92 1.92 0 00.67.11 1.41 1.41 0 001-.31 1.09 1.09 0 00.35-.85.78.78 0 00-.15-.5 1 1 0 00-.38-.32 2.18 2.18 0 00-.54-.22l-.62-.2a6.62 6.62 0 01-.62-.24 2 2 0 01-.54-.36 1.71 1.71 0 01-.39-.55 2.14 2.14 0 01-.14-.81 2 2 0 01.15-.76 1.9 1.9 0 01.45-.65 2 2 0 01.72-.45 2.72 2.72 0 011-.17 3.25 3.25 0 011.14.2 2.47 2.47 0 01.89.55zM87.92 65.8a4.45 4.45 0 011.22.16 2.47 2.47 0 01.85.47 1.77 1.77 0 01.5.71 2.52 2.52 0 01.17.93 2.42 2.42 0 01-.18.94 1.88 1.88 0 01-.52.73 2.27 2.27 0 01-.85.48 3.6 3.6 0 01-1.19.17h-1.08V73h-1.17v-7.2zm0 3.67a2.07 2.07 0 00.68-.1 1.42 1.42 0 00.5-.28 1.19 1.19 0 00.3-.45 1.85 1.85 0 000-1.14 1.08 1.08 0 00-.3-.42 1.22 1.22 0 00-.49-.27 2.39 2.39 0 00-.69-.1h-1.08v2.76zM93.2 73H92v-7.2h1.2zM100.64 73h-1a.47.47 0 01-.45-.24l-1.68-2.43a.5.5 0 00-.19-.17.56.56 0 00-.3-.06h-.65V73h-1.21v-7.2h2.12a4.4 4.4 0 011.23.15 2.2 2.2 0 01.84.41 1.69 1.69 0 01.49.64 2.23 2.23 0 01.15.83 2.07 2.07 0 01-.11.71 2 2 0 01-.32.59 2 2 0 01-.53.45 2.48 2.48 0 01-.7.31 1.27 1.27 0 01.37.36zm-3.39-3.75a2.11 2.11 0 00.7-.1 1.26 1.26 0 00.5-.27 1 1 0 00.3-.42 1.33 1.33 0 00.1-.54 1.06 1.06 0 00-.39-.89 1.85 1.85 0 00-1.18-.32h-1v2.54zM107.79 73h-.91a.41.41 0 01-.25-.08.45.45 0 01-.14-.19l-.6-1.59h-3.1l-.6 1.59a.49.49 0 01-.14.19.41.41 0 01-.25.08h-.91l2.86-7.2h1.18zm-2.22-2.7l-1-2.63a6.23 6.23 0 01-.24-.78c0 .16-.08.31-.12.44a3.24 3.24 0 01-.12.34l-1 2.63zM113.13 66.78h-2.25V73h-1.16v-6.22h-2.25v-1h5.66zM115.55 73h-1.17v-7.2h1.17zM124.28 69.4a4.22 4.22 0 01-.26 1.48 3.28 3.28 0 01-1.87 1.92 4 4 0 01-2.94 0 3.28 3.28 0 01-1.87-1.92 4.34 4.34 0 010-3 3.47 3.47 0 01.73-1.16 3.31 3.31 0 011.14-.76 4 4 0 012.94 0 3.31 3.31 0 011.14.76 3.47 3.47 0 01.73 1.16 4.22 4.22 0 01.26 1.52zm-1.2 0a3.5 3.5 0 00-.16-1.11 2.23 2.23 0 00-.48-.84 1.94 1.94 0 00-.76-.53 2.73 2.73 0 00-2 0 2 2 0 00-.76.53 2.23 2.23 0 00-.48.84 3.74 3.74 0 000 2.23 2.31 2.31 0 00.48.84 2.1 2.1 0 00.76.52 2.73 2.73 0 002 0 2 2 0 00.76-.52 2.31 2.31 0 00.48-.84 3.52 3.52 0 00.16-1.12zM131.77 65.8V73h-.6a.56.56 0 01-.23 0 .52.52 0 01-.18-.16l-3.95-5.08v.29a2.44 2.44 0 010 .26V73h-1v-7.2h.83l.09.06a1 1 0 01.08.11l4 5.08v-.3-4.95zM134 73a.58.58 0 01-.26-.06.6.6 0 01-.21-.14.61.61 0 01-.13-.22.78.78 0 010-.28.69.69 0 010-.24.53.53 0 01.13-.2.57.57 0 01.21-.13.76.76 0 01.27 0 .73.73 0 01.3.06.62.62 0 01.22.17.75.75 0 01.13.25 1 1 0 010 .3 1.71 1.71 0 01-.07.49 2.16 2.16 0 01-.2.51 2.94 2.94 0 01-.32.49 3.05 3.05 0 01-.44.44l-.19-.17a.35.35 0 01-.05-.08.2.2 0 010-.09.27.27 0 01.08-.16.92.92 0 00.13-.14 1.16 1.16 0 00.16-.21 1 1 0 00.15-.25A1 1 0 00134 73zM144.51 73h-1a.5.5 0 01-.45-.24l-1.68-2.43a.42.42 0 00-.18-.17.61.61 0 00-.3-.06h-.65V73H139v-7.2h2.12a4.37 4.37 0 011.22.15 2.2 2.2 0 01.84.41 1.6 1.6 0 01.49.64 2 2 0 01.16.83 2.35 2.35 0 01-.11.71 2.29 2.29 0 01-.33.59 1.9 1.9 0 01-.52.45 2.55 2.55 0 01-.71.31 1.16 1.16 0 01.37.36zm-3.39-3.75a2.11 2.11 0 00.7-.1 1.26 1.26 0 00.5-.27 1.25 1.25 0 00.3-.42 1.33 1.33 0 00.1-.54 1.06 1.06 0 00-.39-.89 1.85 1.85 0 00-1.18-.32h-1v2.54zM150.12 72.05v1h-4.49V65.8h4.49v1h-3.32v2.17h2.65v.91h-2.65v2.22zM155.4 67a.36.36 0 01-.11.13.25.25 0 01-.15 0 .4.4 0 01-.21-.08 2.45 2.45 0 00-.29-.18 2 2 0 00-.41-.18 1.57 1.57 0 00-.56-.09 1.69 1.69 0 00-.53.08 1.07 1.07 0 00-.38.21.9.9 0 00-.23.32 1 1 0 00-.08.39.74.74 0 00.14.46 1.39 1.39 0 00.39.32 3 3 0 00.54.22l.62.21c.21.07.42.16.62.25a1.87 1.87 0 01.55.36 1.71 1.71 0 01.38.52 1.75 1.75 0 01.14.76 2.42 2.42 0 01-.16.89 2.06 2.06 0 01-.48.74 2.16 2.16 0 01-.77.49 2.8 2.8 0 01-1 .18 2.93 2.93 0 01-.67-.07 3.28 3.28 0 01-.63-.19 3.71 3.71 0 01-.56-.29 2.93 2.93 0 01-.46-.4l.34-.55a.43.43 0 01.11-.12.34.34 0 01.41.07l.34.24a2.7 2.7 0 00.48.23 1.92 1.92 0 00.67.11 1.41 1.41 0 001-.31 1.09 1.09 0 00.35-.85.78.78 0 00-.15-.5 1 1 0 00-.38-.32 2.18 2.18 0 00-.54-.22l-.62-.2a6.62 6.62 0 01-.62-.24 1.82 1.82 0 01-.54-.36 1.71 1.71 0 01-.39-.55 2.14 2.14 0 01-.14-.81 2 2 0 01.15-.76 1.9 1.9 0 01.45-.65 2 2 0 01.72-.45 2.72 2.72 0 011-.17 3.25 3.25 0 011.14.2 2.47 2.47 0 01.89.55zM158.52 73h-1.18v-7.2h1.18zM164.64 72v1h-4.16v-7.2h1.17V72zM167.07 73h-1.18v-7.2h1.18zM173.52 72.05v1H169V65.8h4.49v1h-3.29v2.17h2.65v.91h-2.65v2.22zM181 65.8V73h-.6a.56.56 0 01-.23 0 .52.52 0 01-.18-.16l-4-5.08v.29a2.44 2.44 0 010 .26V73h-1v-7.2h.83l.09.06a1 1 0 01.09.14l4 5.08v-.3-4.98zM188 71.39a.23.23 0 01.17.08l.46.5a2.83 2.83 0 01-1.08.82 3.7 3.7 0 01-1.53.29 3.59 3.59 0 01-1.42-.27 3.15 3.15 0 01-1.09-.76 3.42 3.42 0 01-.69-1.17 4.14 4.14 0 01-.25-1.48 4.2 4.2 0 01.26-1.49 3.23 3.23 0 01.73-1.16 3.13 3.13 0 011.12-.76 3.68 3.68 0 011.43-.27 3.5 3.5 0 011.38.25 3.58 3.58 0 011 .67l-.39.55a.43.43 0 01-.09.1.33.33 0 01-.15 0 .45.45 0 01-.23-.1 2.61 2.61 0 00-.32-.2 2.35 2.35 0 00-.5-.21 2.58 2.58 0 00-.74-.09 2.47 2.47 0 00-.95.18 2.26 2.26 0 00-.74.52 2.81 2.81 0 00-.48.85 3.51 3.51 0 00-.17 1.12 3.31 3.31 0 00.18 1.13 2.48 2.48 0 00.49.84 2 2 0 00.74.52 2.37 2.37 0 00.92.19 4.26 4.26 0 00.54 0 1.93 1.93 0 00.43-.1 1.69 1.69 0 00.38-.19 2.11 2.11 0 00.35-.26.29.29 0 01.24-.1zM194.35 72.05v1h-4.49V65.8h4.49v1H191v2.17h2.65v.91H191v2.22zM196.15 73a.6.6 0 01-.27-.06.48.48 0 01-.2-.14.64.64 0 01-.14-.22.78.78 0 010-.28.69.69 0 010-.24.56.56 0 01.14-.2.44.44 0 01.21-.13.75.75 0 01.26 0 .67.67 0 01.3.06.62.62 0 01.22.17.75.75 0 01.13.25 1 1 0 010 .3 2.12 2.12 0 01-.06.49 3.59 3.59 0 01-.2.51 3 3 0 01-.33.49 2.62 2.62 0 01-.44.44l-.18-.17a.21.21 0 01-.06-.08.2.2 0 010-.09.24.24 0 01.09-.16l.13-.14a1.92 1.92 0 00.16-.21 2.75 2.75 0 00.15-.25 1.4 1.4 0 00.09-.29zM207.93 69.4a4.22 4.22 0 01-.26 1.48 3.63 3.63 0 01-.73 1.16 3.45 3.45 0 01-1.14.76 4 4 0 01-2.94 0 3.28 3.28 0 01-1.86-1.92 4.34 4.34 0 010-3 3.47 3.47 0 01.73-1.16 3.31 3.31 0 011.14-.76 4 4 0 012.94 0 3.31 3.31 0 011.14.76 3.63 3.63 0 01.73 1.16 4.22 4.22 0 01.25 1.52zm-1.2 0a3.5 3.5 0 00-.16-1.11 2.53 2.53 0 00-.48-.84 1.94 1.94 0 00-.76-.53 2.73 2.73 0 00-2 0 2 2 0 00-.76.53 2.23 2.23 0 00-.48.84 3.74 3.74 0 000 2.23 2.31 2.31 0 00.48.84 2.1 2.1 0 00.76.52 2.73 2.73 0 002 0 2 2 0 00.76-.52 2.64 2.64 0 00.48-.84 3.52 3.52 0 00.16-1.12zM211.7 65.8a4.35 4.35 0 011.22.16 2.52 2.52 0 01.86.47 1.87 1.87 0 01.5.71 2.52 2.52 0 01.16.93 2.62 2.62 0 01-.17.94 2 2 0 01-.52.73 2.32 2.32 0 01-.86.48 3.6 3.6 0 01-1.19.17h-1.07V73h-1.17v-7.2zm0 3.67a2.09 2.09 0 00.69-.1 1.46 1.46 0 00.49-.28 1.19 1.19 0 00.3-.45 1.7 1.7 0 00.1-.57 1.48 1.48 0 00-.1-.57 1 1 0 00-.29-.42 1.29 1.29 0 00-.49-.27 2.46 2.46 0 00-.7-.1h-1.07v2.76zM218.05 65.8a4.48 4.48 0 011.23.16 2.47 2.47 0 01.85.47 1.77 1.77 0 01.5.71 2.52 2.52 0 01.17.93 2.42 2.42 0 01-.18.94 1.88 1.88 0 01-.52.73 2.27 2.27 0 01-.85.48 3.66 3.66 0 01-1.2.17H217V73h-1.17v-7.2zm0 3.67a2.09 2.09 0 00.69-.1 1.51 1.51 0 00.5-.28 1.06 1.06 0 00.29-.45 1.48 1.48 0 00.1-.57 1.7 1.7 0 00-.09-.57 1.08 1.08 0 00-.3-.42 1.22 1.22 0 00-.49-.27 2.41 2.41 0 00-.7-.1H217v2.76zM228.93 69.4a4 4 0 01-.26 1.48 3.3 3.3 0 01-1.86 1.92 3.94 3.94 0 01-1.48.28 3.84 3.84 0 01-1.46-.28 3.26 3.26 0 01-1.14-.76 3.49 3.49 0 01-.74-1.16 4.34 4.34 0 010-3 3.49 3.49 0 01.74-1.16 3.13 3.13 0 011.14-.76 3.65 3.65 0 011.46-.28 3.75 3.75 0 011.48.28 3.17 3.17 0 011.13.76 3.32 3.32 0 01.73 1.16 4 4 0 01.26 1.52zm-1.19 0a3.5 3.5 0 00-.17-1.11 2.23 2.23 0 00-.48-.84 1.94 1.94 0 00-.76-.53 2.7 2.7 0 00-2 0 1.94 1.94 0 00-.76.53 2.39 2.39 0 00-.49.84 3.74 3.74 0 000 2.23 2.48 2.48 0 00.49.84 2 2 0 00.76.52 2.7 2.7 0 002 0 2 2 0 00.76-.52 2.31 2.31 0 00.48-.84 3.51 3.51 0 00.17-1.12zM235.94 73h-1a.47.47 0 01-.45-.24l-1.68-2.43a.5.5 0 00-.19-.17.56.56 0 00-.3-.06h-.65V73h-1.17v-7.2h2.12a4.33 4.33 0 011.22.15 2.18 2.18 0 01.85.41 1.57 1.57 0 01.48.64 2 2 0 01.16.83 2.07 2.07 0 01-.11.71 2 2 0 01-.32.59 2.11 2.11 0 01-.53.45 2.48 2.48 0 01-.7.31 1.4 1.4 0 01.37.36zm-3.39-3.75a2.11 2.11 0 00.7-.1 1.26 1.26 0 00.5-.27 1 1 0 00.3-.42 1.33 1.33 0 00.1-.54 1.06 1.06 0 00-.39-.89 1.85 1.85 0 00-1.18-.32h-1v2.54zM241.81 66.78h-2.25V73h-1.16v-6.22h-2.25v-1h5.66zM245.9 72.05a2 2 0 00.74-.13 1.87 1.87 0 00.56-.39 1.72 1.72 0 00.34-.61 2.37 2.37 0 00.12-.78V65.8h1.17v4.34a3.48 3.48 0 01-.2 1.18 2.73 2.73 0 01-.59.93 2.69 2.69 0 01-.92.61 3.16 3.16 0 01-1.22.22 3.12 3.12 0 01-1.22-.22 2.73 2.73 0 01-.93-.61 2.71 2.71 0 01-.58-.93 3.48 3.48 0 01-.2-1.18V65.8h1.17v4.33a2.47 2.47 0 00.12.79 1.77 1.77 0 00.34.6 1.63 1.63 0 00.56.4 1.88 1.88 0 00.74.13zM256.66 65.8V73h-.59a.52.52 0 01-.23 0 .39.39 0 01-.18-.16l-4-5.08v.29a2.44 2.44 0 010 .26V73h-1v-7.2h.84l.08.06.09.11 4 5.08v-5.3zM259.8 73h-1.17v-7.2h1.17zM266.72 66.78h-2.25V73h-1.16v-6.22h-2.25v-1h5.66zM270.88 70.18V73h-1.17v-2.82l-2.63-4.38h1a.36.36 0 01.24.08.49.49 0 01.15.19l1.53 2.57c.06.14.13.26.18.37l.15.35a2.48 2.48 0 01.13-.35c.06-.11.12-.23.18-.37l1.47-2.57a.62.62 0 01.14-.19.39.39 0 01.25-.08h1zM274.06 73a.72.72 0 01-.48-.2.8.8 0 01-.13-.22.78.78 0 01-.05-.28.66.66 0 01.18-.44.57.57 0 01.21-.13.86.86 0 01.27 0 .67.67 0 01.3.06.62.62 0 01.22.17.75.75 0 01.13.25 1 1 0 010 .3 2.12 2.12 0 01-.06.49 2.75 2.75 0 01-.21.51 2.42 2.42 0 01-.32.49 2.62 2.62 0 01-.44.44l-.18-.17a.21.21 0 01-.06-.08.2.2 0 010-.09.24.24 0 01.09-.16l.13-.14.16-.21a1.48 1.48 0 00.14-.25 1 1 0 00.1-.29zM283.57 72.05v1h-4.49V65.8h4.49v1h-3.31v2.17h2.65v.91h-2.65v2.22zM290.77 73h-1.17a.25.25 0 01-.19-.07.53.53 0 01-.12-.14l-1.79-2.88a.49.49 0 000 .11l-.06.11-1.73 2.66-.12.14a.23.23 0 01-.18.07h-1.09l2.43-3.7-2.33-3.5h1.16a.26.26 0 01.18 0 .29.29 0 01.11.11l1.75 2.75.05-.12a.67.67 0 01.06-.12l1.59-2.42a.5.5 0 01.11-.13.24.24 0 01.15 0h1.11l-2.35 3.45zM296.65 71.39a.25.25 0 01.17.08l.46.5a2.83 2.83 0 01-1.08.82 3.7 3.7 0 01-1.53.29 3.64 3.64 0 01-1.43-.27 3.2 3.2 0 01-1.08-.76 3.61 3.61 0 01-.7-1.17 4.38 4.38 0 01-.24-1.48 4.2 4.2 0 01.26-1.49 3.23 3.23 0 01.73-1.16 3.18 3.18 0 011.11-.76 3.77 3.77 0 011.44-.27 3.5 3.5 0 011.38.25 3.72 3.72 0 011 .67l-.39.55a.43.43 0 01-.09.1.33.33 0 01-.15 0 .42.42 0 01-.23-.1A2.84 2.84 0 00296 67a2.06 2.06 0 00-.49-.21 2.63 2.63 0 00-.74-.09 2.44 2.44 0 00-.95.18 2.26 2.26 0 00-.74.52 2.81 2.81 0 00-.48.85 3.25 3.25 0 00-.17 1.12 3.31 3.31 0 00.18 1.13 2.48 2.48 0 00.49.84 2 2 0 00.74.52 2.37 2.37 0 00.92.19 4 4 0 00.53 0 1.89 1.89 0 00.44-.1 1.69 1.69 0 00.38-.19 2.63 2.63 0 00.35-.26.28.28 0 01.19-.11zM303 72.05v1h-4.49V65.8H303v1h-3.32v2.17h2.65v.91h-2.65v2.22zM308.72 72v1h-4.16v-7.2h1.17V72zM314.13 72v1H310v-7.2h1.17V72zM319.88 72.05v1h-4.49V65.8h4.49v1h-3.32v2.17h2.65v.91h-2.65v2.22zM327.36 65.8V73h-.6a.47.47 0 01-.41-.21l-4-5.08V73h-1v-7.2h.83l.09.06.08.11 4 5.08v-.3-4.95zM334.32 71.39a.25.25 0 01.17.08l.46.5a2.83 2.83 0 01-1.08.82 3.73 3.73 0 01-1.53.29 3.64 3.64 0 01-1.43-.27 3.2 3.2 0 01-1.08-.76 3.44 3.44 0 01-.7-1.17 4.38 4.38 0 01-.24-1.48 4.2 4.2 0 01.26-1.49A3.27 3.27 0 01331 66a3.77 3.77 0 011.44-.27 3.5 3.5 0 011.38.25 3.72 3.72 0 011 .67l-.39.55-.09.1a.33.33 0 01-.15 0 .42.42 0 01-.23-.1l-.33-.2a2.06 2.06 0 00-.49-.21 2.63 2.63 0 00-.74-.09 2.44 2.44 0 00-.95.18 2.26 2.26 0 00-.74.52 2.61 2.61 0 00-.48.85 3.25 3.25 0 00-.17 1.12 3.31 3.31 0 00.18 1.13 2.48 2.48 0 00.49.84 2 2 0 00.74.52 2.37 2.37 0 00.92.19 4.09 4.09 0 00.53 0 1.89 1.89 0 00.44-.1 1.93 1.93 0 00.38-.19 2.63 2.63 0 00.35-.26.28.28 0 01.23-.11zM340.71 72.05v1h-4.49V65.8h4.49v1h-3.32v2.17H340v.91h-2.65v2.22z"/></g></g></g></svg>

